<svg xmlns="http://www.w3.org/2000/svg" width="155.667" height="159.934" viewBox="0 0 155.667 159.934">
  <g id="Group_120" data-name="Group 120" transform="translate(-834.142 -4710)">
    <path id="Path_9" data-name="Path 9" d="M19.256,141.248H120.149l-4.819-14.694,11.526,9.316,10.564,8.916,19.246,15.147V16.493C156.186,7.577,148.035,0,137.931,0L19.291.02C9.194.02,1,7.61,1,16.526V124.748c0,9.4,8.18,16.5,18.256,16.5ZM93.891,37.871l-.234.08.085-.08Zm-54,8.456c12.97-8.89,24.992-8.463,24.992-8.463l.969.9C49.986,42.329,42.79,49.006,42.79,49.006s1.925-.886,5.286-2.239A85.341,85.341,0,0,1,114.4,49.446S107.194,43.2,92.3,39.2l1.316-1.219c2.059.007,12.956.367,24.617,8.4,0,0,13.048,20.991,13.048,46.781-.432-.493-8.095,11.1-27.815,11.5,0,0-3.34-3.559-5.717-6.664,11.534-3.119,15.85-9.356,15.85-9.356a106.629,106.629,0,0,1-10.041,4.911A70.376,70.376,0,0,1,90.622,97.12c-20.407,3.119-31.862-2.1-42.688-6.237l-3.7-1.773s4.309,6.237,15.383,9.356c-2.908,3.125-5.788,6.677-5.788,6.677-19.713-.44-26.9-12.035-26.9-12.035,0-25.829,12.97-46.781,12.97-46.781Z" transform="translate(833.142 4710)" fill="#d20c00"/>
    <path id="Path_10" data-name="Path 10" d="M25.235,35.429a12.469,12.469,0,0,0,12.217-12.69A12.439,12.439,0,0,0,25.235,10.1v.028A12.483,12.483,0,0,0,13.018,22.8,12.456,12.456,0,0,0,25.235,35.429Z" transform="translate(902.34 4763.629)" fill="#d20c00"/>
    <path id="Path_11" data-name="Path 11" d="M20.617,35.429a12.469,12.469,0,0,0,12.217-12.69A12.426,12.426,0,0,0,20.654,10.1l-.038.028A12.453,12.453,0,0,0,8.4,22.8,12.456,12.456,0,0,0,20.617,35.429Z" transform="translate(875.746 4763.629)" fill="#d20c00"/>
  </g>
</svg>
