<svg xmlns="http://www.w3.org/2000/svg" width="243" height="243" viewBox="0 0 243 243">
  <g id="Gruppe_11626" data-name="Gruppe 11626" transform="translate(4639 -8103)">
    <g id="Ellipse_110" data-name="Ellipse 110" transform="translate(-4639 8103)" stroke="#707070" stroke-width="1">
      <circle cx="121.5" cy="121.5" r="121.5" stroke="none"/>
      <circle cx="121.5" cy="121.5" r="121" fill="none"/>
    </g>
    <path id="Path-3" d="M106.793,206.14q58.718-25.582,78.309-33.731c37.291-15.51,45.04-18.2,50.09-18.294a8.832,8.832,0,0,1,5.2,1.562c2.387,1.937,2.4,6.14,2.135,8.922-2.021,21.233-10.765,72.759-15.211,96.54-1.885,10.062-5.591,13.436-9.179,13.767-7.8.718-13.719-5.154-21.272-10.1-11.818-7.747-18.495-12.57-29.967-20.129-13.257-8.737-4.663-13.538,2.892-21.386,1.977-2.054,36.335-33.3,37-36.14a2.74,2.74,0,0,0-.625-2.374,3.1,3.1,0,0,0-2.78-.27q-1.778.4-56.64,37.437-8.038,5.52-14.562,5.379c-4.795-.1-14.017-2.711-20.873-4.939-8.409-2.733-15.093-4.179-14.511-8.821q.455-3.628,9.99-7.419Z" transform="translate(-4697.915 8009.96)" fill="#f6d849" fill-rule="evenodd"/>
  </g>
</svg>
